<svg width="20" height="27" viewBox="0 0 20 27" fill="none" xmlns="http://www.w3.org/2000/svg">
<path opacity="0.5" d="M14.89 16.4752H0.511963L0.511963 26.9062H3.39496C3.39276 26.8973 3.39109 26.8883 3.38995 26.8792L3.38995 19.1512C3.39425 19.079 3.426 19.011 3.4787 18.9614C3.53139 18.9117 3.60106 18.8841 3.67346 18.8841C3.74587 18.8841 3.81553 18.9117 3.86823 18.9614C3.92092 19.011 3.95268 19.079 3.95697 19.1512L3.95697 26.8792C3.95697 26.8882 3.95697 26.8962 3.95197 26.9062H7.51996C7.51996 26.8972 7.51495 26.8892 7.51495 26.8792L7.51495 19.1512C7.51495 19.0786 7.54383 19.0089 7.59521 18.9575C7.6466 18.9061 7.71627 18.8772 7.78894 18.8772C7.86161 18.8772 7.93134 18.9061 7.98273 18.9575C8.03411 19.0089 8.06299 19.0786 8.06299 19.1512V26.8792C8.06299 26.8882 8.06298 26.8962 8.05798 26.9062H11.626C11.626 26.8972 11.621 26.8892 11.621 26.8792V19.1512C11.621 19.0786 11.6498 19.0089 11.7012 18.9575C11.7526 18.9061 11.8223 18.8772 11.895 18.8772C11.9676 18.8772 12.0373 18.9061 12.0887 18.9575C12.1401 19.0089 12.1689 19.0786 12.1689 19.1512V26.8792C12.1689 26.8882 12.1689 26.8962 12.1639 26.9062H15.731C15.731 26.8972 15.725 26.8892 15.725 26.8792V19.1512C15.725 19.0759 15.7549 19.0037 15.8082 18.9504C15.8614 18.8971 15.9337 18.8672 16.009 18.8672C16.0843 18.8672 16.1565 18.8971 16.2098 18.9504C16.263 19.0037 16.293 19.0759 16.293 19.1512V26.8792C16.2918 26.8883 16.2901 26.8973 16.288 26.9062H19.016V16.4752H14.89Z" fill="#CAE2BC"/>
<path d="M19.014 15.0162C18.9672 14.588 18.7544 14.1952 18.4212 13.9222C18.088 13.6492 17.661 13.5178 17.232 13.5562L11.545 13.5562V4.20621C11.557 4.12407 11.5633 4.04121 11.564 3.95821V1.83421C11.5696 1.59538 11.5274 1.35784 11.4399 1.13555C11.3524 0.91326 11.2214 0.710708 11.0545 0.539803C10.8876 0.368897 10.6882 0.233087 10.468 0.140366C10.2479 0.047644 10.0114 -0.00012207 9.77246 -0.00012207C9.53357 -0.00012207 9.29707 0.047644 9.0769 0.140366C8.85674 0.233087 8.65739 0.368897 8.49048 0.539803C8.32356 0.710708 8.19248 0.91326 8.10498 1.13555C8.01749 1.35784 7.97531 1.59538 7.98096 1.83421L7.98096 13.5562H2.29395C1.8649 13.5178 1.43794 13.6492 1.10474 13.9222C0.771532 14.1952 0.55869 14.588 0.511963 15.0162C0.51263 15.0802 0.518343 15.1441 0.528992 15.2072V16.4762H19.014V15.2072H18.9969C19.0077 15.1441 19.0134 15.0802 19.014 15.0162Z" fill="#59A52C"/>
</svg>
