<svg width="21" height="21" viewBox="0 0 21 21" fill="none" xmlns="http://www.w3.org/2000/svg">
<path d="M10.5 20C15.7467 20 20 15.7467 20 10.5C20 5.25329 15.7467 1 10.5 1C5.25329 1 1 5.25329 1 10.5C1 15.7467 5.25329 20 10.5 20Z" stroke="#59A52C" stroke-width="2"/>
<path d="M12 9C12 8.44772 11.5523 8 11 8C10.4477 8 10 8.44772 10 9V15C10 15.5523 10.4477 16 11 16C11.5523 16 12 15.5523 12 15V9Z" fill="#59A52C"/>
<path d="M11 7C11.5523 7 12 6.55228 12 6C12 5.44772 11.5523 5 11 5C10.4477 5 10 5.44772 10 6C10 6.55228 10.4477 7 11 7Z" fill="#59A52C"/>
</svg>
