<svg version="1.1" width="3173.913043478261" height="1260.869565217391" viewBox="0 0 3173.913043478261 1260.869565217391" xmlns="http://www.w3.org/2000/svg">
  <g transform="scale(8.695652173913043) translate(10, 10)">
    <g id="SvgjsG1474" featurekey="symbolContainer" transform="matrix(1.25,0,0,1.25,0,0)" fill="#59a52c">
      <circle xmlns="http://www.w3.org/2000/svg" cx="50" cy="50" r="50"/>
    </g>
    <g id="SvgjsG1475" featurekey="monogramFeature-0" transform="matrix(1.8183547795866337,0,0,1.8183547795866337,24.643135507765678,-8.632186186033827)" fill="#ffffff">
      <path d="M38.145 39.785 c0.41016 3.1348 -0.52734 6.9434 -3.0469 11.221 c-6.3867 11.074 -22.5 12.275 -33.252 6.5332 l2.5488 -11.133 l4.0723 0 c6.4746 7.7344 13.975 2.4023 14.883 -0.9668 c0.64453 -2.4023 -0.82031 -4.7168 -3.3398 -5.6543 l-2.7246 0 c-1.377 -0.49805 -3.1348 -0.58594 -4.9512 0 l2.6953 0 c-1.377 0.46875 -2.9004 1.3184 -4.3652 2.6367 l-3.6914 0 l0.58594 -2.6367 l-2.7246 0 l5.2148 -22.939 l30.293 0 l-2.4316 10.811 l-16.377 0 l-0.73242 3.1934 c8.7891 0 13.945 3.3691 14.648 8.9355 l2.6953 0 z"/>
    </g>
    <g id="SvgjsG1476" featurekey="nameFeature-0" transform="matrix(1.449722591458768,0,0,1.449722591458768,142.09684816513953,-16.644046605431285)" fill="#ffffff">
      <path d="M11.52 40 c-1.56 0 -3.2 -0.28 -4.84 -0.84 c-1.68 -0.56 -3.16 -1.28 -4.44 -2.2 c-0.24 -0.16 -0.28 -0.44 -0.2 -0.64 l2.04 -4.08 c0.08 -0.16 0.2 -0.28 0.36 -0.28 c0.16 -0.04 0.32 0 0.44 0.08 c0.92 0.8 1.96 1.44 3 1.88 s2.08 0.64 3.08 0.64 c1.2 0 2.12 -0.28 2.76 -0.84 c0.64 -0.52 0.96 -1.24 0.96 -2.16 s-0.32 -1.92 -0.92 -2.4 c-0.64 -0.48 -1.64 -0.72 -3 -0.72 c-0.8 0 -1.2 0 -2.52 0.04 s-2.32 0.08 -3 0.16 c-0.16 0 -0.32 -0.04 -0.4 -0.12 c-0.12 -0.12 -0.2 -0.24 -0.2 -0.4 l0 -13.12 c0 -0.28 0.24 -0.52 0.52 -0.52 l14.28 0 c0.28 0 0.52 0.24 0.52 0.52 l0 4.56 c0 0.28 -0.24 0.52 -0.52 0.52 l-8.88 0 l0 2.88 l1.36 0 c1.84 0 3.52 0.32 4.92 1 c1.44 0.64 2.56 1.6 3.32 2.76 c0.8 1.2 1.2 2.92 1.2 4.44 c0 1.76 -0.4 3.32 -1.24 4.68 c-0.8 1.32 -1.96 2.36 -3.44 3.08 s-3.2 1.08 -5.16 1.08 z M37.96 40 c-2.36 0 -4.52 -0.56 -6.44 -1.68 c-1.92 -1.16 -3.44 -2.72 -4.52 -4.68 s-1.64 -4.16 -1.64 -6.6 c0 -2.36 0.56 -4.56 1.68 -6.52 c1.12 -1.92 2.68 -3.48 4.6 -4.6 c1.96 -1.12 4.16 -1.68 6.48 -1.68 c1.76 0 3.48 0.4 5.16 1.12 c1.68 0.76 3.12 1.76 4.32 3.04 c0.16 0.2 0.16 0.48 0 0.68 l-3.8 3.12 c-0.12 0.12 -0.24 0.2 -0.4 0.2 s-0.32 -0.08 -0.4 -0.2 c-2.04 -2.48 -5.32 -3 -8.08 -1.28 c-2.4 1.48 -3.28 4.2 -3.16 6.92 c0.12 2.76 2.12 5.12 4.76 5.92 c2.4 0.72 4.76 0.16 6.48 -1.68 c0.12 -0.08 0.24 -0.16 0.4 -0.12 c0.16 0 0.28 0.04 0.36 0.16 l3.88 2.72 c0.16 0.2 0.16 0.48 0 0.68 c-1.28 1.36 -2.8 2.48 -4.48 3.28 c-1.72 0.8 -3.48 1.2 -5.2 1.2 z M51.36 40 l0 -23.96 c0 -1 0.2 -1.2 0.52 -1.2 l17.52 0 c0.28 0 0.52 0.2 0.52 0.48 l0 4.52 c0 0.28 -0.24 0.52 -0.52 0.52 l-11.84 0 l0 4.16 l7.48 0 c0.28 0 0.52 0.24 0.52 0.52 l0 4.48 c0 0.28 -0.24 0.52 -0.52 0.52 l-7.48 0 l0 4.28 l11.8 0 c0.28 0 0.52 0.24 0.52 0.52 l0 4.48 c0 0.28 -0.24 0.52 -0.52 0.52 l-17.48 0 c-0.32 0 -0.52 -0.24 -0.52 0.16 z M74.44 40 c-0.28 0 -0.52 -0.24 -0.52 -0.52 l0 -23.96 c0 -0.28 0.24 -0.52 0.52 -0.52 l4.72 0 c0.16 0 0.32 0.08 0.44 0.2 l9.2 14.2 l0 -13.88 c0 -0.28 0.24 -0.52 0.52 -0.52 l4.92 0 c0.28 0 0.52 0.24 0.52 0.52 l0 23.96 c0 0.28 -0.24 0.52 -0.52 0.52 l-4.72 0 c-0.16 0 -0.32 -0.08 -0.44 -0.2 l-9.16 -14.12 l0 13.8 c0 0.28 -0.24 0.52 -0.52 0.52 l-4.96 0 z M105.64000000000001 40 c-0.28 0 -0.48 -0.24 -0.48 -0.52 l0 -18.88 l-5.48 0 c-0.28 0 -0.52 -0.2 -0.52 -0.48 l0 -4.6 c0 -0.28 0.24 -0.52 0.52 -0.52 l17.16 0 c0.32 0 0.52 0.24 0.52 0.52 l0 4.6 c0 0.28 -0.2 0.48 -0.52 0.48 l-5.48 0 l0 18.88 c0 0.28 -0.24 0.52 -0.52 0.52 l-5.2 0 z M130.44000000000003 40.24 c-1.92 0 -3.84 -0.36 -5.68 -1.08 c-1.84 -0.68 -3.48 -1.68 -4.84 -2.88 c-0.16 -0.16 -0.2 -0.4 -0.12 -0.6 l1.4 -4.76 c0.08 -0.16 0.2 -0.28 0.36 -0.28 c0.16 -0.04 0.32 0 0.44 0.12 c2.12 2 4.52 3.8 7.52 3.96 c0.8 0.04 1.68 0.08 2.44 -0.16 c2.36 -0.76 1.36 -3.16 -0.4 -3.88 c-0.6 -0.24 -1.44 -0.52 -2.52 -0.84 c-1.6 -0.44 -2.92 -0.92 -3.92 -1.4 c-1.08 -0.48 -2 -1.24 -2.8 -2.24 c-0.76 -1.04 -1.16 -2.4 -1.16 -4.04 c0 -1.56 0.4 -2.92 1.2 -4.08 s1.92 -2.08 3.32 -2.68 s3.04 -0.92 4.88 -0.92 c1.64 0 3.24 0.24 4.84 0.76 c1.56 0.48 2.96 1.16 4.2 1.96 c0.2 0.16 0.28 0.4 0.16 0.64 l-1.32 4.48 c-0.04 0.16 -0.16 0.24 -0.32 0.28 c-0.12 0.04 -0.28 0.04 -0.4 -0.04 c-1.8 -1.12 -3.6 -2.48 -5.72 -2.76 c-1.4 -0.2 -3.52 -0.12 -4 1.56 c-0.6 2.16 2.56 2.72 4 3.16 c1.6 0.48 2.92 0.96 3.96 1.44 c1.08 0.52 2.04 1.32 2.8 2.32 c0.8 1.04 1.2 2.44 1.2 4.12 c0 1.64 -0.44 3.04 -1.28 4.24 c-0.8 1.2 -1.96 2.08 -3.4 2.72 c-1.44 0.56 -3.04 0.88 -4.84 0.88 z" style="fill: rgb(0, 0, 0);"/>
    </g>
    <g id="SvgjsG1477" featurekey="nameFeature-1" transform="matrix(2.7233120221368834,0,0,2.7233120221368834,139.55337660501442,13.220042622392896)" fill="#ffffff">
      <path d="M14.6 40 c-2.36 0 -4.52 -0.56 -6.44 -1.68 c-1.92 -1.16 -3.44 -2.72 -4.52 -4.68 s-1.64 -4.16 -1.64 -6.6 c0 -2.36 0.56 -4.56 1.68 -6.52 c1.12 -1.92 2.68 -3.48 4.6 -4.6 c1.96 -1.12 4.16 -1.68 6.48 -1.68 c1.76 0 3.48 0.4 5.16 1.12 c1.68 0.76 3.12 1.76 4.32 3.04 c0.16 0.2 0.16 0.48 0 0.68 l-3.8 3.12 c-0.12 0.12 -0.24 0.2 -0.4 0.2 s-0.32 -0.08 -0.4 -0.2 c-2.04 -2.48 -5.32 -3 -8.08 -1.28 c-2.4 1.48 -3.28 4.2 -3.16 6.92 c0.12 2.76 2.12 5.12 4.76 5.92 c2.4 0.72 4.76 0.16 6.48 -1.68 c0.12 -0.08 0.24 -0.16 0.4 -0.12 c0.16 0 0.28 0.04 0.36 0.16 l3.88 2.72 c0.16 0.2 0.16 0.48 0 0.68 c-1.28 1.36 -2.8 2.48 -4.48 3.28 c-1.72 0.8 -3.48 1.2 -5.2 1.2 z M28.92 40 c-0.32 0 -0.52 -0.24 -0.52 -0.52 l0 -23.96 c0 -0.28 0.2 -0.52 0.52 -0.52 l9.08 0 c2.4 0 4.6 0.52 6.52 1.6 c1.92 1.04 3.4 2.52 4.48 4.44 c1.04 1.88 1.6 4.04 1.6 6.44 c0 2.44 -0.56 4.6 -1.64 6.48 c-1.08 1.92 -2.6 3.4 -4.56 4.44 c-1.92 1.08 -4.16 1.6 -6.6 1.6 l-8.88 0 z M34.6 34.4 l3.52 0 c1.16 0 2.24 -0.28 3.16 -0.84 c0.92 -0.6 1.68 -1.4 2.2 -2.44 s0.8 -2.24 0.8 -3.6 c0 -1.32 -0.28 -2.56 -0.84 -3.6 c-0.56 -1.08 -1.32 -1.88 -2.28 -2.48 c-0.96 -0.56 -2.08 -0.88 -3.28 -0.88 l-3.28 0 l0 13.84 z M55.120000000000005 40 c-0.28 0 -0.52 -0.24 -0.52 -0.52 l0 -23.96 c0 -0.28 0.24 -0.52 0.52 -0.52 l4.72 0 c0.16 0 0.32 0.08 0.44 0.2 l9.2 14.2 l0 -13.88 c0 -0.28 0.24 -0.52 0.52 -0.52 l4.92 0 c0.28 0 0.52 0.24 0.52 0.52 l0 23.96 c0 0.28 -0.24 0.52 -0.52 0.52 l-4.72 0 c-0.16 0 -0.32 -0.08 -0.44 -0.2 l-9.16 -14.12 l0 13.8 c0 0.28 -0.24 0.52 -0.52 0.52 l-4.96 0 z" style="fill: rgb(0, 0, 0);"/>
    </g>
  </g>
</svg>
